<?xml version="1.0" encoding="UTF-8"?>
<svg viewBox="0 0 155 155" xmlns="http://www.w3.org/2000/svg">
 <path transform="matrix(1.1024 0 0 1.1024 -274.67 -210.16)" d="m384.37 260.95a64.908 64.908 0 1 0 -129.82 0 64.908 64.908 0 1 0 129.82 0z" fill="none" stroke="#000" stroke-width="6.25"/>
 <g transform="matrix(1.0447 0 0 1.0446 -365.86 -226.68)" fill-rule="evenodd">
  <path d="m456.95 261.6c-17.267 0-31.397 13.388-32.65 30.336 1.1812-7.8869 7.9757-13.945 16.19-13.945 9.0449 0 16.383 7.338 16.383 16.383l-0.00337 0.20054c0.10874 8.9515 7.5633 16.182 16.54 16.182 9.0449 0 16.391-7.338 16.391-16.383 0-0.83054-0.08112-1.64-0.20055-2.4374-1.2533-16.948-15.383-30.336-32.65-30.336z"/>
  <path d="m391.87 320.76c17.267 0 31.397-13.388 32.65-30.336-1.1812 7.8869-7.9757 13.945-16.19 13.945-9.0449 0-16.383-7.338-16.383-16.383l0.00337-0.20054c-0.10874-8.9515-7.5633-16.182-16.54-16.182-9.0449 0-16.391 7.338-16.391 16.383 0 0.83054 0.08112 1.64 0.20055 2.4374 1.2533 16.948 15.383 30.336 32.65 30.336z"/>
  <g transform="matrix(-1.9245e-17 1 -1 -1.9245e-17 715.59 -133.23)">
   <path d="m456.95 261.6c-17.267 0-31.397 13.388-32.65 30.336 1.1812-7.8869 7.9757-13.945 16.19-13.945 9.0449 0 16.383 7.338 16.383 16.383l-0.00337 0.20054c0.10874 8.9515 7.5633 16.182 16.54 16.182 9.0449 0 16.391-7.338 16.391-16.383 0-0.83054-0.08112-1.64-0.20055-2.4374-1.2533-16.948-15.383-30.336-32.65-30.336z"/>
   <path d="m391.87 320.76c17.267 0 31.397-13.388 32.65-30.336-1.1812 7.8869-7.9757 13.945-16.19 13.945-9.0449 0-16.383-7.338-16.383-16.383l0.00337-0.20054c-0.10874-8.9515-7.5633-16.182-16.54-16.182-9.0449 0-16.391 7.338-16.391 16.383 0 0.83054 0.08112 1.64 0.20055 2.4374 1.2533 16.948 15.383 30.336 32.65 30.336z"/>
  </g>
 </g>
</svg>
